<svg xmlns="http://www.w3.org/2000/svg" viewBox="0 0 32 32">
  <rect width="32" height="32" rx="8" fill="#2a1a12"/>
  <path d="M9 12c0-3 2-5 5-5s5 2 5 5" stroke="#e3c98a" stroke-width="1.8" fill="none" stroke-linecap="round"/>
  <path d="M15 7V4.5" stroke="#e3c98a" stroke-width="1.8" stroke-linecap="round"/>
  <rect x="8" y="16" width="14" height="2.4" rx="1.2" fill="#f1e6d4"/>
  <path d="M8.4 17.6h13.2L19.7 28a2.6 2.6 0 0 1-2.5 2h-4.4a2.6 2.6 0 0 1-2.5-2z" fill="#f1e6d4"/>
  <path d="M17 15.6h4.2a3 3 0 0 1 3 3v.4a3 3 0 0 1-3 3H17" stroke="#bf6843" stroke-width="1.8" fill="none" stroke-linecap="round"/>
</svg>
